<?xml version="1.0" encoding="utf-8"?>
<!-- Generator: Adobe Illustrator 26.5.0, SVG Export Plug-In . SVG Version: 6.00 Build 0)  -->
<svg version="1.1" id="Layer_1" xmlns="http://www.w3.org/2000/svg" xmlns:xlink="http://www.w3.org/1999/xlink" x="0px" y="0px"
	 viewBox="0 0 284.36 266.05" style="enable-background:new 0 0 284.36 266.05;" xml:space="preserve">
<style type="text/css">
	.st0{fill:#AAAAAA;}
	.st1{fill:#969696;}
	.st2{fill:#0020F5;}
	.st3{fill:#0020C8;}
</style>
<g>
	<g>
		<path class="st0" d="M214.51,65.24c7.73-20.91,21.23-39.73,38.66-53.89c5.93-4.82,12.73-9.26,20.39-9.77
			c2.27-0.15,4.78,0.15,6.34,1.78c1.38,1.44,1.68,3.57,1.91,5.54c0.35,3.02,0.7,6.04,1.05,9.06c0.07,0.61,0.13,1.28-0.17,1.82
			c-0.55,0.97-1.91,1.03-3.04,1.03c-13.04,0.01-24.74,9.04-31.32,20.16c-6.58,11.12-8.92,24.11-10.85,36.83"/>
		<g>
			<path class="st1" d="M215.95,65.64c4.32-11.62,10.42-22.58,17.98-32.4c3.84-4.99,8.06-9.68,12.6-14.03
				c4.53-4.34,9.36-8.58,14.74-11.82c2.68-1.62,5.53-2.95,8.58-3.71c2.56-0.63,6.47-1.4,8.7,0.48c1.06,0.89,1.38,2.34,1.59,3.64
				c0.29,1.78,0.44,3.6,0.65,5.39c0.2,1.7,0.5,3.43,0.59,5.14c0.03,0.6,0.06,0.78-0.57,0.91c-0.68,0.14-1.44,0.06-2.13,0.08
				c-11.68,0.4-21.98,7.53-28.83,16.64c-8.92,11.88-11.67,27.1-13.84,41.44c-0.29,1.89,2.6,2.7,2.89,0.8
				c2.05-13.56,4.54-27.84,12.53-39.33c3.46-4.98,7.99-9.32,13.26-12.35c2.6-1.49,5.36-2.65,8.27-3.38c1.32-0.33,2.66-0.58,4.02-0.7
				c1.52-0.14,3.13,0.05,4.62-0.29c3.85-0.88,2.62-5.14,2.29-7.99c-0.2-1.75-0.4-3.5-0.61-5.25c-0.19-1.63-0.4-3.27-1.1-4.77
				c-2.94-6.25-12.1-4.08-17.06-2.05c-6.06,2.49-11.28,6.59-16.18,10.85c-4.95,4.3-9.57,8.99-13.79,14.01
				c-9.48,11.27-16.98,24.09-22.11,37.89C212.39,66.65,215.28,67.44,215.95,65.64L215.95,65.64z"/>
		</g>
	</g>
	<g>
		<g>
			<path class="st2" d="M208.16,61.15c-5.94-4.96-14.91-4.95-21.93-1.68c-7.02,3.27-12.39,9.24-16.97,15.48
				c-5.93,8.1-10.87,16.92-14.66,26.21c-3.2,7.85-5.61,16.06-9.61,23.53c-3.48,6.49-8.09,12.3-12.77,17.98
				c-29.13,35.4-64.49,69.26-109.23,79.29c-4.55,1.02-9.24,1.81-13.38,3.97c-4.14,2.16-7.73,6.03-8.11,10.68
				c-0.58,6.99,5.9,12.43,12.08,15.75c24.27,13.04,53.29,13.84,80.64,10.56c10.12-1.21,20.24-2.95,29.85-6.36
				c20.7-7.35,37.87-21.99,54.53-36.32c5.15-4.43,10.31-8.87,14.95-13.82c6.19-6.6,11.41-14.04,16.88-21.25
				c6.97-9.18,14.39-18.03,22.03-26.66c8.83-9.97,18.13-19.95,23.24-32.25s5.1-27.72-3.71-37.71"/>
			<g>
				<path class="st3" d="M209.22,60.09c-7.85-6.39-19.03-5.2-27.18-0.03c-4.38,2.78-8.07,6.51-11.31,10.53
					c-3.52,4.37-6.69,9.05-9.54,13.89c-2.88,4.9-5.41,9.99-7.61,15.23c-2.27,5.43-4.11,11.02-6.31,16.47
					c-2.23,5.51-5.02,10.69-8.45,15.55c-3.19,4.53-6.74,8.79-10.28,13.03c-13.29,15.89-27.59,31.09-43.75,44.1
					C69.07,201.53,51.38,212.08,32,218.02c-5.14,1.58-10.4,2.58-15.61,3.89c-4.98,1.25-10,3.27-13.32,7.37
					c-2.98,3.69-4,8.46-2.16,12.92c1.82,4.4,5.67,7.67,9.62,10.14c9.03,5.63,19.73,9.05,30.1,11.11c10.8,2.15,21.86,2.82,32.85,2.54
					c11.41-0.3,22.91-1.46,34.13-3.56c11.36-2.13,22.18-5.84,32.3-11.43c9.61-5.31,18.44-11.92,26.92-18.86
					c4.33-3.54,8.57-7.18,12.8-10.83c4.43-3.81,8.86-7.63,12.98-11.78c8.37-8.44,14.97-18.4,22.27-27.73
					c7.4-9.45,15.3-18.44,23.23-27.44c7.13-8.09,14.18-16.56,18.51-26.54c3.83-8.82,5.28-18.98,2.74-28.36
					c-1.2-4.43-3.34-8.5-6.35-11.96c-1.27-1.46-3.38,0.67-2.12,2.12c6.12,7.04,7.67,16.91,6.24,25.91
					c-1.6,10.1-6.85,19.04-13.03,27.02c-6.78,8.76-14.53,16.76-21.67,25.23c-7.51,8.92-14.4,18.27-21.51,27.5
					c-3.46,4.48-7.1,8.82-11.12,12.81c-4.13,4.1-8.56,7.89-12.98,11.68c-8.15,7.01-16.34,14.01-25.13,20.22
					c-8.63,6.1-17.87,11.49-27.86,15.06c-10.86,3.89-22.38,5.67-33.81,6.85c-21.2,2.19-43.25,1.82-63.52-5.41
					c-4.87-1.74-9.74-3.83-14.16-6.53c-3.64-2.22-7.56-5.31-8.93-9.53c-1.51-4.62,0.91-9.06,4.64-11.79c4.3-3.14,9.78-4,14.85-5.12
					c19.26-4.26,37.2-13.09,53.26-24.42c16.36-11.55,30.89-25.51,44.24-40.38c6.92-7.71,13.8-15.6,19.91-23.96
					c3.29-4.51,6.14-9.26,8.39-14.37c2.33-5.3,4.18-10.78,6.26-16.18c3.99-10.32,9.33-20.1,15.92-28.99
					c5.75-7.75,13.45-15.61,23.62-16.44c4.44-0.36,9.05,0.58,12.56,3.44C208.58,63.42,210.71,61.31,209.22,60.09L209.22,60.09z"/>
			</g>
		</g>
		<g>
			<g>
				<path class="st3" d="M207.44,63.42c6.81,5.29,14.28,9.59,21.85,13.69c3.77,2.04,7.57,4.05,11.31,6.14
					c1.87,1.04,3.73,2.11,5.57,3.21c1.68,1.01,3.65,1.97,4.72,3.68c1.01,1.64,3.61,0.13,2.59-1.51c-1.05-1.69-2.61-2.81-4.28-3.84
					c-1.88-1.16-3.8-2.28-5.73-3.37c-3.8-2.15-7.65-4.19-11.49-6.26c-7.73-4.17-15.46-8.45-22.41-13.85
					C208.06,60.13,205.92,62.24,207.44,63.42L207.44,63.42z"/>
			</g>
		</g>
	</g>
</g>
</svg>
